Coordinates
nRows=7
nColumns=38

# SIMM Motion File Header:
name Coordinates
datacolumns 38
datarows 7
otherdata 1
range 1.89550000000000000000 1.90150000000000000000

Units are S.I. units (second, meters, Newtons, ...)
Angles are in degrees.

endheader
time	pelvis_tilt	pelvis_list	pelvis_rotation	pelvis_tx	pelvis_ty	pelvis_tz	hip_flexion_r	hip_adduction_r	hip_rotation_r	knee_angle_r	ankle_angle_r	subtalar_angle_r	mtp_angle_r	hip_flexion_l	hip_adduction_l	hip_rotation_l	knee_angle_l	ankle_angle_l	subtalar_angle_l	mtp_angle_l	lumbar_extension	lumbar_bending	lumbar_rotation	arm_flex_r	arm_add_r	arm_rot_r	elbow_flex_r	pro_sup_r	wrist_flex_r	wrist_dev_r	arm_flex_l	arm_add_l	arm_rot_l	elbow_flex_l	pro_sup_l	wrist_flex_l	wrist_dev_l
      1.89550000000000000000	     -6.50827164618935770000	     -1.27107771828590940000	      3.79410564841186520000	      0.92943944983847460000	      1.00745396437947070000	     -0.33104830187123158000	     51.20725595027176500000	      5.19643994507569570000	     -0.01112858891144136000	    -97.99546037184339300000	      3.38524659163615200000	     -0.00000000000015745310	      0.00000000000040457720	     -2.58455888510663590000	      6.13796358739428080000	     10.28404970049141600000	    -26.88151242289627900000	     10.20597184730043400000	     -0.00000000000005795865	      0.00000000000000589281	     -1.79641318464108530000	      1.76436713117403050000	    -10.92480725190745800000	    -32.58290054271002800000	    -15.72025560359461200000	     -4.99890544773397230000	    109.23576231722264000000	     95.33481716280353200000	      0.00000000000002035748	     -0.00000000000004316089	    -13.90235366896162400000	    -12.60055097029572100000	     -1.45903897601197950000	    131.83068249391508000000	     90.14720476115817900000	      0.00000000000001377476	     -0.00000000000002654061
      1.89650000000000010000	     -6.50695425773149160000	     -1.38650060218021350000	      3.69815657849714970000	      0.92992804229496029000	      1.00826790943081050000	     -0.33091635175795797000	     51.26561764036175400000	      5.34620940977010940000	      0.00426790704581584380	    -97.43514889069543000000	      3.37764120766606930000	     -0.00000000000015778506	      0.00000000000040566238	     -3.00889431329039780000	      5.94889978475478820000	     10.15533705690647900000	    -26.47417544954544500000	      9.55653365911577170000	     -0.00000000000005832084	      0.00000000000000566258	     -1.71040603387361820000	      1.90184069516126050000	    -10.94392683488594800000	    -32.71076618794163000000	    -15.73275605130497100000	     -5.03187629865398730000	    109.37111205544217000000	     95.37962167121020200000	      0.00000000000002039750	     -0.00000000000004323596	    -13.87601470601645900000	    -12.53873593154113500000	     -1.38358891350465750000	    132.03511609927023000000	     90.18039135153141200000	      0.00000000000001380858	     -0.00000000000002683712
      1.89750000000000000000	     -6.50557170938867380000	     -1.50105182071671010000	      3.60128373539020210000	      0.93042048413624767000	      1.00908503161798980000	     -0.33078301874333310000	     51.31804874811989200000	      5.49523902407848830000	      0.02029544536136252500	    -96.86864864906631600000	      3.36903206222183990000	     -0.00000000000015811977	      0.00000000000040674616	     -3.43102708799088910000	      5.76153346919211450000	     10.01890332408726700000	    -26.06728420129243400000	      8.89499373264525060000	     -0.00000000000005870023	      0.00000000000000541346	     -1.62453361179170530000	      2.03856111792362690000	    -10.96079113294121900000	    -32.83951786446724700000	    -15.74405206915603700000	     -5.06702575972324980000	    109.50570268018386000000	     95.42384587552877000000	      0.00000000000002043802	     -0.00000000000004331086	    -13.85141963482620000000	    -12.47693954145623800000	     -1.30639224551511200000	    132.23796893945891000000	     90.21341282915224700000	      0.00000000000001384232	     -0.00000000000002714050
      1.89850000000000010000	     -6.50417557612072630000	     -1.61459100886051600000	      3.50359360770133140000	      0.93091629167456458000	      1.00990494394133520000	     -0.33064849165061477000	     51.36465132603383000000	      5.64331639412747950000	      0.03700843186549705700	    -96.29604887632434900000	      3.35934722624257990000	     -0.00000000000015845339	      0.00000000000040783118	     -3.85071091815399180000	      5.57609149103387840000	      9.87482625424073570000	    -25.66120294608352000000	      8.22195995845781800000	     -0.00000000000005907927	      0.00000000000000513240	     -1.53881167755192800000	      2.17437442586396430000	    -10.97551884063104800000	    -32.96908934291422400000	    -15.75412324130574300000	     -5.10430829287504300000	    109.63950012950379000000	     95.46727886054313200000	      0.00000000000002047848	     -0.00000000000004338523	    -13.82854184704700300000	    -12.41523685824482600000	     -1.22748403698433450000	    132.43924223822211000000	     90.24635062858254700000	      0.00000000000001387615	     -0.00000000000002744062
      1.89950000000000000000	     -6.50282346092113170000	     -1.72697665008589540000	      3.40519726831505440000	      0.93141497817004237000	      1.01072724720350980000	     -0.33051297223828635000	     51.40553585585350000000	      5.79022579190394100000	      0.05445831287768435800	    -95.71743977666606900000	      3.34852286983735900000	     -0.00000000000015878567	      0.00000000000040891574	     -4.26769003353304300000	      5.39280098563237420000	      9.72320675636411910000	    -25.25630825028205000000	      7.53808488199751900000	     -0.00000000000005946744	      0.00000000000000484929	     -1.45324707405738200000	      2.30912542508183180000	    -10.98823262747019000000	    -33.09941635506018500000	    -15.76295079511733000000	     -5.14367786014212760000	    109.77247417883767000000	     95.50972340597991200000	      0.00000000000002051914	     -0.00000000000004345983	    -13.80735300758025400000	    -12.35370215379700600000	     -1.14689951374879580000	    132.63893694324824000000	     90.27928176596543600000	      0.00000000000001390976	     -0.00000000000002773560
      1.90050000000000010000	     -6.50157894092983920000	     -1.83806655079712790000	      3.30620995576305980000	      0.93191605534327526000	      1.01155153020827230000	     -0.33037667485310557000	     51.44082107395689700000	      5.93574885120200510000	      0.07269326106206139300	    -95.13291239966586900000	      3.33650407418869440000	     -0.00000000000015911096	      0.00000000000040999948	     -4.68169936087228320000	      5.21188847552012820000	      9.56416901617849110000	    -24.85298904810551300000	      6.84406572587168420000	     -0.00000000000005983540	      0.00000000000000459306	     -1.36783749346287880000	      2.44265831047498150000	    -10.99905852433841100000	    -33.23043694743206800000	    -15.77051768630174800000	     -5.18508831931159090000	    109.90459830713733000000	     95.55099700053818900000	      0.00000000000002055991	     -0.00000000000004353391	    -13.78782290219779400000	    -12.29240866470450100000	     -1.06467360025150160000	    132.83705339134539000000	     90.31227844774451800000	      0.00000000000001394259	     -0.00000000000002802810
      1.90150000000000000000	     -6.50051145653134200000	     -1.94771818301475140000	      3.20675063920024470000	      0.93241903483977084000	      1.01237737014315580000	     -0.33023982603862823000	     51.47063374305951600000	      6.07966517215969220000	      0.09175796452851575600	    -94.54255853632791700000	      3.32324555342233240000	     -0.00000000000015943262	      0.00000000000041108502	     -5.09246474634599890000	      5.03357911567633390000	      9.39786051275673810000	    -24.45164667407069800000	      6.14064150623534030000	     -0.00000000000006017883	      0.00000000000000433864	     -1.28257134167619350000	      2.57481713097799460000	    -11.00812530969011300000	    -33.36209179205630400000	    -15.77680864348022300000	     -5.22849379177764110000	    110.03584953680650000000	     95.59093277189012400000	      0.00000000000002060052	     -0.00000000000004360751	    -13.76991929471091100000	    -12.23142838091109200000	     -0.98084049725571931000	    133.03359101375358000000	     90.34540770394519900000	      0.00000000000001397508	     -0.00000000000002831057
